<mxfile host="app.diagrams.net" modified="2022-06-15T07:50:12.008Z" agent="5.0 (X11)" etag="Jz0m4t-I3UPfvDKbkWJD" version="20.0.1" type="github">
  <diagram id="lp4DYYduYNcrfLK_OYbS" name="Page-1">
    <mxGraphModel dx="1673" dy="965" grid="1" gridSize="10" guides="1" tooltips="1" connect="1" arrows="1" fold="1" page="1" pageScale="1" pageWidth="850" pageHeight="1100" math="0" shadow="0">
      <root>
        <mxCell id="0" />
        <mxCell id="1" parent="0" />
        <mxCell id="Ss7N3K07TZrPG119x-rG-15" value="" style="edgeStyle=orthogonalEdgeStyle;rounded=0;orthogonalLoop=1;jettySize=auto;html=1;" edge="1" parent="1" source="Ss7N3K07TZrPG119x-rG-1" target="Ss7N3K07TZrPG119x-rG-7">
          <mxGeometry relative="1" as="geometry" />
        </mxCell>
        <mxCell id="Ss7N3K07TZrPG119x-rG-1" value="a" style="ellipse;whiteSpace=wrap;html=1;aspect=fixed;fillColor=#dae8fc;strokeColor=#6c8ebf;" vertex="1" parent="1">
          <mxGeometry x="180" y="140" width="80" height="80" as="geometry" />
        </mxCell>
        <mxCell id="Ss7N3K07TZrPG119x-rG-16" value="" style="edgeStyle=orthogonalEdgeStyle;rounded=0;orthogonalLoop=1;jettySize=auto;html=1;" edge="1" parent="1" source="Ss7N3K07TZrPG119x-rG-2" target="Ss7N3K07TZrPG119x-rG-8">
          <mxGeometry relative="1" as="geometry" />
        </mxCell>
        <mxCell id="Ss7N3K07TZrPG119x-rG-2" value="" style="ellipse;whiteSpace=wrap;html=1;aspect=fixed;fillColor=#dae8fc;strokeColor=#6c8ebf;" vertex="1" parent="1">
          <mxGeometry x="290" y="140" width="80" height="80" as="geometry" />
        </mxCell>
        <mxCell id="Ss7N3K07TZrPG119x-rG-17" value="" style="edgeStyle=orthogonalEdgeStyle;rounded=0;orthogonalLoop=1;jettySize=auto;html=1;" edge="1" parent="1" source="Ss7N3K07TZrPG119x-rG-3" target="Ss7N3K07TZrPG119x-rG-9">
          <mxGeometry relative="1" as="geometry" />
        </mxCell>
        <mxCell id="Ss7N3K07TZrPG119x-rG-3" value="" style="ellipse;whiteSpace=wrap;html=1;aspect=fixed;fillColor=#dae8fc;strokeColor=#6c8ebf;" vertex="1" parent="1">
          <mxGeometry x="550" y="140" width="80" height="80" as="geometry" />
        </mxCell>
        <mxCell id="Ss7N3K07TZrPG119x-rG-18" value="" style="edgeStyle=orthogonalEdgeStyle;rounded=0;orthogonalLoop=1;jettySize=auto;html=1;" edge="1" parent="1" source="Ss7N3K07TZrPG119x-rG-4" target="Ss7N3K07TZrPG119x-rG-10">
          <mxGeometry relative="1" as="geometry" />
        </mxCell>
        <mxCell id="Ss7N3K07TZrPG119x-rG-4" value="" style="ellipse;whiteSpace=wrap;html=1;aspect=fixed;fillColor=#dae8fc;strokeColor=#6c8ebf;" vertex="1" parent="1">
          <mxGeometry x="650" y="140" width="80" height="80" as="geometry" />
        </mxCell>
        <mxCell id="Ss7N3K07TZrPG119x-rG-5" value="" style="endArrow=none;dashed=1;html=1;dashPattern=1 3;strokeWidth=2;rounded=0;" edge="1" parent="1">
          <mxGeometry width="50" height="50" relative="1" as="geometry">
            <mxPoint x="390" y="180" as="sourcePoint" />
            <mxPoint x="530" y="180" as="targetPoint" />
          </mxGeometry>
        </mxCell>
        <mxCell id="Ss7N3K07TZrPG119x-rG-6" value="Layer 1" style="text;html=1;strokeColor=none;fillColor=none;align=center;verticalAlign=middle;whiteSpace=wrap;rounded=0;" vertex="1" parent="1">
          <mxGeometry x="50" y="165" width="60" height="30" as="geometry" />
        </mxCell>
        <mxCell id="Ss7N3K07TZrPG119x-rG-7" value="a" style="ellipse;whiteSpace=wrap;html=1;aspect=fixed;fillColor=#ffe6cc;strokeColor=#d79b00;" vertex="1" parent="1">
          <mxGeometry x="180" y="280" width="80" height="80" as="geometry" />
        </mxCell>
        <mxCell id="Ss7N3K07TZrPG119x-rG-8" value="" style="ellipse;whiteSpace=wrap;html=1;aspect=fixed;fillColor=#ffe6cc;strokeColor=#d79b00;" vertex="1" parent="1">
          <mxGeometry x="290" y="280" width="80" height="80" as="geometry" />
        </mxCell>
        <mxCell id="Ss7N3K07TZrPG119x-rG-9" value="" style="ellipse;whiteSpace=wrap;html=1;aspect=fixed;fillColor=#ffe6cc;strokeColor=#d79b00;" vertex="1" parent="1">
          <mxGeometry x="550" y="280" width="80" height="80" as="geometry" />
        </mxCell>
        <mxCell id="Ss7N3K07TZrPG119x-rG-10" value="" style="ellipse;whiteSpace=wrap;html=1;aspect=fixed;fillColor=#ffe6cc;strokeColor=#d79b00;" vertex="1" parent="1">
          <mxGeometry x="650" y="280" width="80" height="80" as="geometry" />
        </mxCell>
        <mxCell id="Ss7N3K07TZrPG119x-rG-11" value="" style="endArrow=none;dashed=1;html=1;dashPattern=1 3;strokeWidth=2;rounded=0;" edge="1" parent="1">
          <mxGeometry width="50" height="50" relative="1" as="geometry">
            <mxPoint x="390" y="320" as="sourcePoint" />
            <mxPoint x="530" y="320" as="targetPoint" />
          </mxGeometry>
        </mxCell>
        <mxCell id="Ss7N3K07TZrPG119x-rG-12" value="Layer 2" style="text;html=1;strokeColor=none;fillColor=none;align=center;verticalAlign=middle;whiteSpace=wrap;rounded=0;" vertex="1" parent="1">
          <mxGeometry x="50" y="305" width="60" height="30" as="geometry" />
        </mxCell>
        <mxCell id="Ss7N3K07TZrPG119x-rG-13" value="" style="ellipse;whiteSpace=wrap;html=1;aspect=fixed;fillColor=#ffe6cc;strokeColor=#d79b00;" vertex="1" parent="1">
          <mxGeometry x="410" y="470" width="80" height="80" as="geometry" />
        </mxCell>
        <mxCell id="Ss7N3K07TZrPG119x-rG-52" value="" style="edgeStyle=orthogonalEdgeStyle;rounded=0;orthogonalLoop=1;jettySize=auto;html=1;" edge="1" parent="1" source="Ss7N3K07TZrPG119x-rG-14" target="Ss7N3K07TZrPG119x-rG-51">
          <mxGeometry relative="1" as="geometry" />
        </mxCell>
        <mxCell id="Ss7N3K07TZrPG119x-rG-14" value="Output layer" style="text;html=1;strokeColor=none;fillColor=none;align=center;verticalAlign=middle;whiteSpace=wrap;rounded=0;" vertex="1" parent="1">
          <mxGeometry x="30" y="490" width="100" height="30" as="geometry" />
        </mxCell>
        <mxCell id="Ss7N3K07TZrPG119x-rG-23" value="" style="endArrow=classic;html=1;rounded=0;exitX=1;exitY=1;exitDx=0;exitDy=0;" edge="1" parent="1" source="Ss7N3K07TZrPG119x-rG-1" target="Ss7N3K07TZrPG119x-rG-8">
          <mxGeometry width="50" height="50" relative="1" as="geometry">
            <mxPoint x="260" y="540" as="sourcePoint" />
            <mxPoint x="310" y="490" as="targetPoint" />
          </mxGeometry>
        </mxCell>
        <mxCell id="Ss7N3K07TZrPG119x-rG-24" value="" style="endArrow=classic;html=1;rounded=0;exitX=1;exitY=1;exitDx=0;exitDy=0;entryX=0;entryY=0;entryDx=0;entryDy=0;" edge="1" parent="1" source="Ss7N3K07TZrPG119x-rG-1" target="Ss7N3K07TZrPG119x-rG-9">
          <mxGeometry width="50" height="50" relative="1" as="geometry">
            <mxPoint x="258.284271247471" y="218.284271247471" as="sourcePoint" />
            <mxPoint x="316.3305845090754" y="297.7547093312039" as="targetPoint" />
          </mxGeometry>
        </mxCell>
        <mxCell id="Ss7N3K07TZrPG119x-rG-25" value="" style="endArrow=classic;html=1;rounded=0;exitX=1;exitY=1;exitDx=0;exitDy=0;entryX=0;entryY=0;entryDx=0;entryDy=0;" edge="1" parent="1" source="Ss7N3K07TZrPG119x-rG-1" target="Ss7N3K07TZrPG119x-rG-10">
          <mxGeometry width="50" height="50" relative="1" as="geometry">
            <mxPoint x="258.284271247471" y="218.284271247471" as="sourcePoint" />
            <mxPoint x="571.7157287525383" y="301.7157287525381" as="targetPoint" />
          </mxGeometry>
        </mxCell>
        <mxCell id="Ss7N3K07TZrPG119x-rG-26" value="" style="endArrow=classic;html=1;rounded=0;exitX=0;exitY=1;exitDx=0;exitDy=0;entryX=0.5;entryY=0;entryDx=0;entryDy=0;" edge="1" parent="1" source="Ss7N3K07TZrPG119x-rG-2" target="Ss7N3K07TZrPG119x-rG-7">
          <mxGeometry width="50" height="50" relative="1" as="geometry">
            <mxPoint x="258.284271247471" y="218.284271247471" as="sourcePoint" />
            <mxPoint x="571.7157287525383" y="301.7157287525381" as="targetPoint" />
          </mxGeometry>
        </mxCell>
        <mxCell id="Ss7N3K07TZrPG119x-rG-28" value="" style="endArrow=classic;html=1;rounded=0;exitX=1;exitY=1;exitDx=0;exitDy=0;" edge="1" parent="1" source="Ss7N3K07TZrPG119x-rG-2">
          <mxGeometry width="50" height="50" relative="1" as="geometry">
            <mxPoint x="549.9957287525292" y="208.284271247471" as="sourcePoint" />
            <mxPoint x="560" y="290" as="targetPoint" />
          </mxGeometry>
        </mxCell>
        <mxCell id="Ss7N3K07TZrPG119x-rG-29" value="" style="endArrow=classic;html=1;rounded=0;exitX=1;exitY=1;exitDx=0;exitDy=0;entryX=0;entryY=0;entryDx=0;entryDy=0;" edge="1" parent="1" source="Ss7N3K07TZrPG119x-rG-2" target="Ss7N3K07TZrPG119x-rG-10">
          <mxGeometry width="50" height="50" relative="1" as="geometry">
            <mxPoint x="368.284271247471" y="218.284271247471" as="sourcePoint" />
            <mxPoint x="570" y="300" as="targetPoint" />
          </mxGeometry>
        </mxCell>
        <mxCell id="Ss7N3K07TZrPG119x-rG-30" value="" style="endArrow=classic;html=1;rounded=0;exitX=0;exitY=1;exitDx=0;exitDy=0;" edge="1" parent="1" source="Ss7N3K07TZrPG119x-rG-3">
          <mxGeometry width="50" height="50" relative="1" as="geometry">
            <mxPoint x="258.284271247471" y="218.284271247471" as="sourcePoint" />
            <mxPoint x="220" y="280" as="targetPoint" />
          </mxGeometry>
        </mxCell>
        <mxCell id="Ss7N3K07TZrPG119x-rG-31" value="" style="endArrow=classic;html=1;rounded=0;exitX=0;exitY=1;exitDx=0;exitDy=0;entryX=0.5;entryY=0;entryDx=0;entryDy=0;" edge="1" parent="1" source="Ss7N3K07TZrPG119x-rG-3" target="Ss7N3K07TZrPG119x-rG-8">
          <mxGeometry width="50" height="50" relative="1" as="geometry">
            <mxPoint x="571.7157287525383" y="218.28427124746213" as="sourcePoint" />
            <mxPoint x="230" y="290" as="targetPoint" />
          </mxGeometry>
        </mxCell>
        <mxCell id="Ss7N3K07TZrPG119x-rG-32" value="" style="endArrow=classic;html=1;rounded=0;exitX=1;exitY=1;exitDx=0;exitDy=0;entryX=0;entryY=0;entryDx=0;entryDy=0;" edge="1" parent="1" source="Ss7N3K07TZrPG119x-rG-3" target="Ss7N3K07TZrPG119x-rG-10">
          <mxGeometry width="50" height="50" relative="1" as="geometry">
            <mxPoint x="571.7157287525383" y="218.28427124746213" as="sourcePoint" />
            <mxPoint x="340" y="290" as="targetPoint" />
          </mxGeometry>
        </mxCell>
        <mxCell id="Ss7N3K07TZrPG119x-rG-33" value="" style="endArrow=classic;html=1;rounded=0;exitX=0;exitY=1;exitDx=0;exitDy=0;" edge="1" parent="1" source="Ss7N3K07TZrPG119x-rG-4">
          <mxGeometry width="50" height="50" relative="1" as="geometry">
            <mxPoint x="628.2842712474617" y="218.28427124746167" as="sourcePoint" />
            <mxPoint x="590" y="280" as="targetPoint" />
          </mxGeometry>
        </mxCell>
        <mxCell id="Ss7N3K07TZrPG119x-rG-34" value="" style="endArrow=classic;html=1;rounded=0;exitX=0;exitY=1;exitDx=0;exitDy=0;entryX=1;entryY=0;entryDx=0;entryDy=0;" edge="1" parent="1" target="Ss7N3K07TZrPG119x-rG-8">
          <mxGeometry width="50" height="50" relative="1" as="geometry">
            <mxPoint x="661.7157287525383" y="208.28427124746213" as="sourcePoint" />
            <mxPoint x="590" y="280" as="targetPoint" />
          </mxGeometry>
        </mxCell>
        <mxCell id="Ss7N3K07TZrPG119x-rG-35" value="" style="endArrow=classic;html=1;rounded=0;entryX=0.5;entryY=0;entryDx=0;entryDy=0;" edge="1" parent="1" target="Ss7N3K07TZrPG119x-rG-7">
          <mxGeometry width="50" height="50" relative="1" as="geometry">
            <mxPoint x="660" y="210" as="sourcePoint" />
            <mxPoint x="368.284271247471" y="301.71572875252923" as="targetPoint" />
          </mxGeometry>
        </mxCell>
        <mxCell id="Ss7N3K07TZrPG119x-rG-36" value="" style="endArrow=classic;html=1;rounded=0;entryX=0.5;entryY=0;entryDx=0;entryDy=0;exitX=0;exitY=1;exitDx=0;exitDy=0;" edge="1" parent="1" source="Ss7N3K07TZrPG119x-rG-9" target="Ss7N3K07TZrPG119x-rG-13">
          <mxGeometry width="50" height="50" relative="1" as="geometry">
            <mxPoint x="483.43572875253835" y="500.00427124746216" as="sourcePoint" />
            <mxPoint x="180.004271247471" y="583.4357287525293" as="targetPoint" />
          </mxGeometry>
        </mxCell>
        <mxCell id="Ss7N3K07TZrPG119x-rG-37" value="" style="endArrow=classic;html=1;rounded=0;entryX=0.5;entryY=0;entryDx=0;entryDy=0;exitX=0.5;exitY=1;exitDx=0;exitDy=0;" edge="1" parent="1" source="Ss7N3K07TZrPG119x-rG-10" target="Ss7N3K07TZrPG119x-rG-13">
          <mxGeometry width="50" height="50" relative="1" as="geometry">
            <mxPoint x="631.7157287525383" y="368.28427124746213" as="sourcePoint" />
            <mxPoint x="520" y="490" as="targetPoint" />
          </mxGeometry>
        </mxCell>
        <mxCell id="Ss7N3K07TZrPG119x-rG-39" value="" style="endArrow=classic;html=1;rounded=0;exitX=0.5;exitY=1;exitDx=0;exitDy=0;" edge="1" parent="1" source="Ss7N3K07TZrPG119x-rG-8">
          <mxGeometry width="50" height="50" relative="1" as="geometry">
            <mxPoint x="571.7157287525383" y="358.28427124746213" as="sourcePoint" />
            <mxPoint x="450" y="470" as="targetPoint" />
          </mxGeometry>
        </mxCell>
        <mxCell id="Ss7N3K07TZrPG119x-rG-40" value="" style="endArrow=classic;html=1;rounded=0;exitX=0.5;exitY=1;exitDx=0;exitDy=0;entryX=0.5;entryY=0;entryDx=0;entryDy=0;" edge="1" parent="1" target="Ss7N3K07TZrPG119x-rG-13">
          <mxGeometry width="50" height="50" relative="1" as="geometry">
            <mxPoint x="220" y="360" as="sourcePoint" />
            <mxPoint x="340" y="470" as="targetPoint" />
          </mxGeometry>
        </mxCell>
        <mxCell id="Ss7N3K07TZrPG119x-rG-41" value="Chaque connection à un poids w associé" style="text;html=1;strokeColor=none;fillColor=none;align=center;verticalAlign=middle;whiteSpace=wrap;rounded=0;" vertex="1" parent="1">
          <mxGeometry x="750" y="230" width="260" height="30" as="geometry" />
        </mxCell>
        <mxCell id="Ss7N3K07TZrPG119x-rG-44" value="" style="edgeStyle=orthogonalEdgeStyle;rounded=0;orthogonalLoop=1;jettySize=auto;html=1;" edge="1" parent="1" source="Ss7N3K07TZrPG119x-rG-42" target="Ss7N3K07TZrPG119x-rG-43">
          <mxGeometry relative="1" as="geometry" />
        </mxCell>
        <mxCell id="Ss7N3K07TZrPG119x-rG-42" value="Activation =&amp;gt; somme des poids * activation + bias " style="text;html=1;strokeColor=none;fillColor=none;align=center;verticalAlign=middle;whiteSpace=wrap;rounded=0;" vertex="1" parent="1">
          <mxGeometry x="530" y="495" width="350" height="30" as="geometry" />
        </mxCell>
        <mxCell id="Ss7N3K07TZrPG119x-rG-46" value="" style="edgeStyle=orthogonalEdgeStyle;rounded=0;orthogonalLoop=1;jettySize=auto;html=1;" edge="1" parent="1" source="Ss7N3K07TZrPG119x-rG-43" target="Ss7N3K07TZrPG119x-rG-45">
          <mxGeometry relative="1" as="geometry" />
        </mxCell>
        <mxCell id="Ss7N3K07TZrPG119x-rG-48" value="" style="edgeStyle=orthogonalEdgeStyle;rounded=0;orthogonalLoop=1;jettySize=auto;html=1;" edge="1" parent="1" source="Ss7N3K07TZrPG119x-rG-43" target="Ss7N3K07TZrPG119x-rG-47">
          <mxGeometry relative="1" as="geometry" />
        </mxCell>
        <mxCell id="Ss7N3K07TZrPG119x-rG-50" value="" style="edgeStyle=orthogonalEdgeStyle;rounded=0;orthogonalLoop=1;jettySize=auto;html=1;" edge="1" parent="1" source="Ss7N3K07TZrPG119x-rG-43" target="Ss7N3K07TZrPG119x-rG-49">
          <mxGeometry relative="1" as="geometry" />
        </mxCell>
        <mxCell id="Ss7N3K07TZrPG119x-rG-43" value="Calcul erreur" style="whiteSpace=wrap;html=1;" vertex="1" parent="1">
          <mxGeometry x="645" y="590" width="120" height="60" as="geometry" />
        </mxCell>
        <mxCell id="Ss7N3K07TZrPG119x-rG-45" value="Backpropagation" style="whiteSpace=wrap;html=1;" vertex="1" parent="1">
          <mxGeometry x="845" y="590" width="120" height="60" as="geometry" />
        </mxCell>
        <mxCell id="Ss7N3K07TZrPG119x-rG-47" value="Regression =&amp;gt; MSE" style="whiteSpace=wrap;html=1;" vertex="1" parent="1">
          <mxGeometry x="530" y="730" width="120" height="60" as="geometry" />
        </mxCell>
        <mxCell id="Ss7N3K07TZrPG119x-rG-49" value="&lt;div&gt;Classification &lt;br&gt;&lt;/div&gt;&lt;div&gt;log max&lt;br&gt;&lt;/div&gt;" style="whiteSpace=wrap;html=1;" vertex="1" parent="1">
          <mxGeometry x="730" y="730" width="120" height="60" as="geometry" />
        </mxCell>
        <mxCell id="Ss7N3K07TZrPG119x-rG-51" value="&lt;div&gt;As many as needed output:&lt;/div&gt;&lt;div&gt;for multiclass &amp;gt; 1 output per class&lt;br&gt;&lt;/div&gt;" style="whiteSpace=wrap;html=1;" vertex="1" parent="1">
          <mxGeometry x="20" y="585" width="120" height="60" as="geometry" />
        </mxCell>
      </root>
    </mxGraphModel>
  </diagram>
</mxfile>
